<svg width="104" height="58" viewBox="0 0 104 58" fill="none" xmlns="http://www.w3.org/2000/svg">
<path d="M32.6876 19.9603H32.6875C30.8945 19.9603 29.4409 21.4177 29.4409 23.2155V27.7623C29.4409 29.5601 30.8945 31.0175 32.6875 31.0175H32.6876C34.4806 31.0175 35.9342 29.5601 35.9342 27.7623V23.2155C35.9342 21.4177 34.4806 19.9603 32.6876 19.9603Z" fill="#3BD366"/>
<path d="M41.8475 16.4006H41.8475C40.0544 16.4006 38.6008 17.858 38.6008 19.6558V27.7623C38.6008 29.5601 40.0544 31.0175 41.8475 31.0175H41.8475C43.6405 31.0175 45.0941 29.5601 45.0941 27.7623V19.6558C45.0941 17.858 43.6405 16.4006 41.8475 16.4006Z" fill="#3BD366"/>
<path d="M51.3285 11.728H51.3285C49.5355 11.728 48.0819 13.1854 48.0819 14.9832V27.7624C48.0819 29.5602 49.5355 31.0176 51.3285 31.0176C53.1216 31.0176 54.5751 29.5602 54.5751 27.7624V14.9832C54.5751 13.1854 53.1216 11.728 51.3285 11.728Z" fill="#3BD366"/>
<path d="M71.3573 4.88989H71.3573C69.5642 4.88989 68.1106 6.3473 68.1106 8.14511V27.7623C68.1106 29.5602 69.5642 31.0176 71.3573 31.0176C73.1503 31.0176 74.6039 29.5602 74.6039 27.7623V8.14511C74.6039 6.3473 73.1503 4.88989 71.3573 4.88989Z" fill="#210D4A"/>
<path d="M60.8094 8.48236H60.8094C59.0163 8.48236 57.5627 9.93977 57.5627 11.7376V27.7625C57.5627 29.5603 59.0163 31.0177 60.8094 31.0177C62.6024 31.0177 64.056 29.5603 64.056 27.7625V11.7376C64.056 9.93977 62.6024 8.48236 60.8094 8.48236Z" fill="#210D4A"/>
<path d="M74.6042 17.9536V17.9536C74.6042 16.1558 73.1506 14.6984 71.3576 14.6984H60.8095C59.0164 14.6984 57.5629 16.1558 57.5629 17.9536C57.5629 19.7514 59.0164 21.2088 60.8095 21.2088H71.3576C73.1506 21.2088 74.6042 19.7514 74.6042 17.9536Z" fill="#210D4A"/>
<path d="M11.8885 50.0889C11.7853 50.0889 11.6975 50.0526 11.6252 49.9802C11.5529 49.9077 11.5167 49.8197 11.5167 49.7161V39.6065C11.5167 39.4926 11.5477 39.3994 11.6097 39.3269C11.682 39.2544 11.7749 39.2183 11.8885 39.2183H13.2979C13.4115 39.2183 13.4993 39.2544 13.5613 39.3269C13.6336 39.3994 13.6696 39.4926 13.6696 39.6065V43.6131H18.2387V39.6065C18.2387 39.4926 18.2697 39.3994 18.3317 39.3269C18.4039 39.2544 18.4969 39.2183 18.6105 39.2183H20.0044C20.118 39.2183 20.2109 39.2544 20.2832 39.3269C20.3555 39.3994 20.3916 39.4926 20.3916 39.6065V49.7161C20.3916 49.83 20.3555 49.9232 20.2832 49.9957C20.2109 50.0578 20.118 50.0889 20.0044 50.0889H18.6105C18.5072 50.0889 18.4194 50.0526 18.3471 49.9802C18.2749 49.9077 18.2387 49.8197 18.2387 49.7161V45.5543H13.6696V49.7161C13.6696 49.8197 13.6336 49.9077 13.5613 49.9802C13.4993 50.0526 13.4115 50.0889 13.2979 50.0889H11.8885Z" fill="#210D4A"/>
<path d="M25.7741 50.2442C24.6279 50.2442 23.7141 49.9129 23.0327 49.2503C22.3615 48.5773 22.0053 47.6352 21.964 46.4239L21.9485 46.0357L21.964 45.6475C22.0156 44.4672 22.377 43.5406 23.0482 42.8677C23.7296 42.1947 24.6382 41.8582 25.7741 41.8582C26.9925 41.8582 27.9321 42.231 28.5929 42.9764C29.2641 43.7218 29.5998 44.7157 29.5998 45.958V46.2842C29.5998 46.3876 29.5636 46.4757 29.4913 46.5481C29.419 46.6206 29.3261 46.6569 29.2125 46.6569H24.0704V46.7811C24.091 47.3505 24.2459 47.832 24.5351 48.2253C24.8345 48.6084 25.2424 48.8 25.7586 48.8C26.3678 48.8 26.8583 48.5618 27.23 48.0856C27.3229 47.9717 27.3952 47.8992 27.4468 47.8682C27.5087 47.8371 27.5965 47.8215 27.7101 47.8215H29.0421C29.1351 47.8215 29.2125 47.8526 29.2744 47.9148C29.3467 47.9665 29.3829 48.0338 29.3829 48.1166C29.3829 48.3651 29.2332 48.6601 28.9337 49.0018C28.6446 49.3331 28.2264 49.623 27.6792 49.8715C27.1319 50.1199 26.4969 50.2442 25.7741 50.2442ZM27.4933 45.3524V45.3058C27.4933 44.6949 27.3384 44.2032 27.0287 43.8305C26.7291 43.4578 26.311 43.2715 25.7741 43.2715C25.2372 43.2715 24.819 43.4578 24.5196 43.8305C24.22 44.2032 24.0704 44.6949 24.0704 45.3058V45.3524H27.4933Z" fill="#210D4A"/>
<path d="M32.0974 50.0889C31.9941 50.0889 31.9065 50.0526 31.8342 49.9802C31.7619 49.9077 31.7257 49.8197 31.7257 49.7162V43.6597H30.4712C30.3679 43.6597 30.2801 43.6234 30.2078 43.5509C30.1355 43.4681 30.0995 43.375 30.0995 43.2715V42.3863C30.0995 42.2827 30.1355 42.1947 30.2078 42.1223C30.2801 42.0498 30.3679 42.0136 30.4712 42.0136H31.7257V41.3769C31.7257 39.5237 32.7376 38.5971 34.7615 38.5971H35.8147C35.9282 38.5971 36.016 38.6333 36.0779 38.7058C36.1502 38.7679 36.1864 38.8559 36.1864 38.9698V39.855C36.1864 39.9689 36.1502 40.0621 36.0779 40.1346C36.0056 40.207 35.9179 40.2432 35.8147 40.2432H34.8233C34.4207 40.2432 34.1367 40.3415 33.9715 40.5383C33.8166 40.735 33.7392 41.0404 33.7392 41.4545V42.0136H35.6597C35.7734 42.0136 35.8611 42.0498 35.923 42.1223C35.9953 42.1844 36.0315 42.2724 36.0315 42.3863V43.2715C36.0315 43.3854 35.9953 43.4785 35.923 43.5509C35.8508 43.6234 35.763 43.6597 35.6597 43.6597H33.7392V49.7162C33.7392 49.8197 33.7031 49.9077 33.6308 49.9802C33.5585 50.0526 33.4707 50.0889 33.3674 50.0889H32.0974Z" fill="#210D4A"/>
<path d="M43.8081 50.2442C42.8892 50.2442 42.0992 50.1045 41.4384 49.8249C40.7776 49.5454 40.2768 49.1779 39.936 48.7223C39.5953 48.2669 39.4145 47.7751 39.394 47.247C39.394 47.1538 39.4249 47.0762 39.4868 47.0141C39.5488 46.9519 39.6263 46.921 39.7192 46.921H41.0977C41.2215 46.921 41.3145 46.9468 41.3764 46.9985C41.4487 47.0399 41.5159 47.1124 41.5777 47.216C41.681 47.568 41.9186 47.863 42.2902 48.1012C42.6619 48.3393 43.1679 48.4583 43.8081 48.4583C44.5412 48.4583 45.0937 48.3393 45.4654 48.1012C45.8371 47.8527 46.0229 47.5111 46.0229 47.0762C46.0229 46.7863 45.9248 46.5482 45.7287 46.3618C45.5428 46.1755 45.2588 46.015 44.8768 45.8804C44.5051 45.7459 43.9475 45.5802 43.2041 45.3835C41.9856 45.0936 41.0925 44.7105 40.5245 44.2343C39.967 43.7477 39.6882 43.0592 39.6882 42.1689C39.6882 41.5684 39.8482 41.0352 40.1683 40.5693C40.4987 40.1035 40.9686 39.7359 41.5777 39.4668C42.1973 39.1976 42.915 39.063 43.7306 39.063C44.5774 39.063 45.3105 39.2131 45.93 39.5133C46.5496 39.8136 47.0193 40.1915 47.3394 40.647C47.6699 41.0922 47.8454 41.5374 47.8661 41.9826C47.8661 42.0757 47.8351 42.1534 47.7731 42.2155C47.7111 42.2776 47.6338 42.3086 47.5408 42.3086H46.1004C45.8836 42.3086 45.7338 42.2103 45.6512 42.0136C45.5892 41.6824 45.3828 41.408 45.0317 41.1906C44.6806 40.9627 44.2469 40.8489 43.7306 40.8489C43.1524 40.8489 42.6981 40.9576 42.3677 41.175C42.0373 41.3925 41.8721 41.7082 41.8721 42.1223C41.8721 42.4122 41.9546 42.6503 42.1199 42.8367C42.285 43.023 42.5433 43.1886 42.8943 43.3336C43.2557 43.4785 43.7719 43.639 44.4432 43.815C45.3518 44.0221 46.0746 44.2551 46.6116 44.5139C47.1588 44.7727 47.5615 45.0987 47.8196 45.4922C48.0777 45.8856 48.2068 46.3877 48.2068 46.9985C48.2068 47.6611 48.021 48.2409 47.6493 48.7379C47.2879 49.2244 46.7716 49.5972 46.1004 49.856C45.4396 50.1148 44.6755 50.2442 43.8081 50.2442Z" fill="#210D4A"/>
<path d="M52.9556 50.2442C51.8095 50.2442 50.8956 49.9129 50.2141 49.2503C49.543 48.5773 49.1867 47.6352 49.1454 46.4239L49.1299 46.0357L49.1454 45.6475C49.1971 44.4672 49.5585 43.5406 50.2296 42.8677C50.9111 42.1947 51.8198 41.8582 52.9556 41.8582C54.174 41.8582 55.1137 42.231 55.7745 42.9764C56.4456 43.7218 56.7812 44.7157 56.7812 45.958V46.2842C56.7812 46.3876 56.7451 46.4757 56.6728 46.5481C56.6005 46.6206 56.5076 46.6569 56.394 46.6569H51.2518V46.7811C51.2725 47.3505 51.4274 47.832 51.7165 48.2253C52.0159 48.6084 52.4238 48.8 52.9401 48.8C53.5493 48.8 54.0398 48.5618 54.4114 48.0856C54.5044 47.9717 54.5767 47.8992 54.6283 47.8682C54.6903 47.8371 54.778 47.8215 54.8916 47.8215H56.2236C56.3165 47.8215 56.394 47.8526 56.456 47.9148C56.5283 47.9665 56.5644 48.0338 56.5644 48.1166C56.5644 48.3651 56.4147 48.6601 56.1152 49.0018C55.8261 49.3331 55.4079 49.623 54.8606 49.8715C54.3134 50.1199 53.6784 50.2442 52.9556 50.2442ZM54.6748 45.3524V45.3058C54.6748 44.6949 54.5199 44.2032 54.2101 43.8305C53.9107 43.4578 53.4925 43.2715 52.9556 43.2715C52.4186 43.2715 52.0004 43.4578 51.701 43.8305C51.4016 44.2032 51.2518 44.6949 51.2518 45.3058V45.3524H54.6748Z" fill="#210D4A"/>
<path d="M58.4872 50.0889C58.3839 50.0889 58.2962 50.0527 58.2239 49.9802C58.1516 49.9077 58.1155 49.8197 58.1155 49.7162V42.4018C58.1155 42.2983 58.1516 42.2103 58.2239 42.1378C58.2962 42.055 58.3839 42.0136 58.4872 42.0136H59.7418C59.8553 42.0136 59.9483 42.0498 60.0206 42.1223C60.0929 42.1947 60.129 42.288 60.129 42.4018V43.0385C60.3768 42.7073 60.6866 42.4535 61.0583 42.2775C61.4404 42.1016 61.874 42.0136 62.3593 42.0136H62.9944C63.1079 42.0136 63.1957 42.0498 63.2577 42.1223C63.33 42.1844 63.3661 42.2724 63.3661 42.3863V43.5044C63.3661 43.6079 63.33 43.6959 63.2577 43.7684C63.1957 43.8408 63.1079 43.8771 62.9944 43.8771H61.7863C61.3009 43.8771 60.9189 44.0169 60.6401 44.2964C60.3613 44.576 60.2219 44.959 60.2219 45.4455V49.7162C60.2219 49.8197 60.1857 49.9077 60.1135 49.9802C60.0412 50.0527 59.9483 50.0889 59.8347 50.0889H58.4872Z" fill="#210D4A"/>
<path d="M67.1141 50.0889C66.9592 50.0889 66.8405 50.0579 66.7579 49.9957C66.6753 49.9232 66.6081 49.8249 66.5566 49.7006L63.6603 42.4949L63.6293 42.3552C63.6293 42.2621 63.6603 42.1844 63.7221 42.1223C63.7944 42.0498 63.877 42.0136 63.97 42.0136H65.2245C65.4208 42.0136 65.5549 42.1119 65.6272 42.3086L67.6871 47.7595L69.7472 42.3086C69.7782 42.2361 69.8246 42.1689 69.8865 42.1067C69.9588 42.0447 70.0466 42.0136 70.1499 42.0136H71.4199C71.5025 42.0136 71.5748 42.0498 71.6368 42.1223C71.709 42.1844 71.7451 42.2621 71.7451 42.3552C71.7451 42.4174 71.74 42.464 71.7296 42.4949L68.8178 49.7006C68.7663 49.8249 68.6991 49.9232 68.6165 49.9957C68.5339 50.0579 68.4151 50.0889 68.2603 50.0889H67.1141Z" fill="#210D4A"/>
<path d="M73.158 40.6781C73.0547 40.6781 72.9669 40.6418 72.8947 40.5693C72.8224 40.497 72.7863 40.409 72.7863 40.3054V39.1873C72.7863 39.0837 72.8224 38.9957 72.8947 38.9232C72.9669 38.8508 73.0547 38.8146 73.158 38.8146H74.5674C74.6707 38.8146 74.7584 38.8508 74.8307 38.9232C74.9134 38.9957 74.9547 39.0837 74.9547 39.1873V40.3054C74.9547 40.409 74.9185 40.497 74.8462 40.5693C74.7739 40.6418 74.6811 40.6781 74.5674 40.6781H73.158ZM73.22 50.089C73.1167 50.089 73.0289 50.0527 72.9566 49.9802C72.8844 49.9078 72.8483 49.8197 72.8483 49.7162V42.3863C72.8483 42.2828 72.8844 42.1948 72.9566 42.1223C73.0289 42.0498 73.1167 42.0137 73.22 42.0137H74.5055C74.6191 42.0137 74.7069 42.0498 74.7688 42.1223C74.8411 42.1845 74.8772 42.2725 74.8772 42.3863V49.7162C74.8772 49.8197 74.8411 49.9078 74.7688 49.9802C74.7069 50.0527 74.6191 50.089 74.5055 50.089H73.22Z" fill="#210D4A"/>
<path d="M80.1071 50.2442C78.9714 50.2442 78.0627 49.9284 77.3812 49.2968C76.7101 48.6653 76.3539 47.7905 76.3125 46.6724L76.297 46.0513L76.3125 45.4301C76.3539 44.3119 76.7101 43.4371 77.3812 42.8056C78.0627 42.1741 78.9714 41.8582 80.1071 41.8582C80.9126 41.8582 81.594 42.0032 82.1517 42.2931C82.7195 42.5829 83.1377 42.9402 83.4062 43.3646C83.6851 43.7788 83.8347 44.1722 83.8554 44.5449C83.8657 44.6484 83.8296 44.7364 83.7469 44.8088C83.6747 44.8813 83.5869 44.9176 83.4836 44.9176H82.1207C82.0174 44.9176 81.9348 44.8968 81.8729 44.8554C81.8213 44.8037 81.7696 44.7209 81.718 44.6069C81.5631 44.2032 81.3566 43.9133 81.0985 43.7374C80.8506 43.5614 80.5305 43.4733 80.1381 43.4733C79.6116 43.4733 79.1985 43.6441 78.8991 43.9858C78.5997 44.317 78.4396 44.8243 78.4189 45.5077L78.4034 46.0822L78.4189 46.5947C78.4603 47.951 79.0333 48.6291 80.1381 48.6291C80.5408 48.6291 80.8661 48.5412 81.114 48.3651C81.3618 48.1891 81.5631 47.8992 81.718 47.4955C81.7696 47.3816 81.8213 47.3039 81.8729 47.2625C81.9348 47.2107 82.0174 47.1848 82.1207 47.1848H83.4836C83.5869 47.1848 83.6747 47.2211 83.7469 47.2936C83.8296 47.3661 83.8657 47.4541 83.8554 47.5576C83.8347 47.9199 83.6902 48.3082 83.4217 48.7223C83.1532 49.1364 82.7402 49.4936 82.1827 49.7938C81.625 50.094 80.9332 50.2442 80.1071 50.2442Z" fill="#210D4A"/>
<path d="M88.6303 50.2442C87.4842 50.2442 86.5703 49.9129 85.8888 49.2503C85.2177 48.5773 84.8614 47.6352 84.8201 46.4239L84.8046 46.0357L84.8201 45.6475C84.8718 44.4672 85.2332 43.5406 85.9043 42.8677C86.5858 42.1947 87.4945 41.8582 88.6303 41.8582C89.8487 41.8582 90.7884 42.231 91.4492 42.9764C92.1203 43.7218 92.4559 44.7157 92.4559 45.958V46.2842C92.4559 46.3876 92.4198 46.4757 92.3475 46.5481C92.2753 46.6206 92.1823 46.6569 92.0687 46.6569H86.9265V46.7811C86.9472 47.3505 87.1021 47.832 87.3912 48.2253C87.6906 48.6084 88.0985 48.8 88.6148 48.8C89.224 48.8 89.7145 48.5618 90.0862 48.0856C90.1791 47.9717 90.2514 47.8992 90.303 47.8682C90.365 47.8371 90.4528 47.8215 90.5663 47.8215H91.8984C91.9912 47.8215 92.0687 47.8526 92.1307 47.9148C92.203 47.9665 92.2391 48.0338 92.2391 48.1166C92.2391 48.3651 92.0894 48.6601 91.7899 49.0018C91.5008 49.3331 91.0826 49.623 90.5353 49.8715C89.9881 50.1199 89.3531 50.2442 88.6303 50.2442ZM90.3495 45.3524V45.3058C90.3495 44.6949 90.1946 44.2032 89.8848 43.8305C89.5854 43.4578 89.1672 43.2715 88.6303 43.2715C88.0933 43.2715 87.6751 43.4578 87.3757 43.8305C87.0763 44.2032 86.9265 44.6949 86.9265 45.3058V45.3524H90.3495Z" fill="#210D4A"/>
</svg>
